<?xml version="1.0" encoding="utf-8"?>
<!-- Generator: Adobe Illustrator 23.0.1, SVG Export Plug-In . SVG Version: 6.00 Build 0)  -->
<svg version="1.1" id="logo" xmlns="http://www.w3.org/2000/svg" xmlns:xlink="http://www.w3.org/1999/xlink" x="0px" y="0px"
	 viewBox="0 0 324.4 188.5" style="enable-background:new 0 0 324.4 188.5;" xml:space="preserve">
<style type="text/css">
	.st0{fill:#FFFFFF;}
</style>
<g>
	<path class="st0" d="M56.4,88.4l-20.1-42h23.1L66.9,62l7.4-15.6h23.1l-20.1,42v31.7H56.4V88.4z M68.1,111.3V84.8l14.2-29.6h-3
		L66.9,81.4L54.3,55.2h-2.9l14.1,29.6v26.4L68.1,111.3L68.1,111.3z"/>
	<path class="st0" d="M97.3,83.3c0-5.3,0.9-10.3,2.7-15c1.8-4.7,4.2-8.8,7.3-12.3c3.1-3.5,6.7-6.3,10.8-8.3c4.1-2,8.6-3,13.2-3
		c4.7,0,9.1,1,13.2,3c4.1,2,7.8,4.8,10.8,8.3c3.1,3.5,5.5,7.6,7.3,12.3s2.7,9.7,2.7,15s-0.9,10.3-2.7,15s-4.2,8.8-7.3,12.3
		s-6.7,6.3-10.8,8.3c-4.2,2-8.6,3-13.2,3c-4.7,0-9.1-1-13.2-3c-4.2-2-7.8-4.8-10.8-8.3c-3.1-3.5-5.5-7.6-7.3-12.3
		S97.3,88.6,97.3,83.3z M106.5,83.3c0,3.9,0.6,7.6,1.9,11s3.1,6.4,5.4,9s4.9,4.6,7.9,6.1s6.2,2.2,9.7,2.2c3.4,0,6.7-0.7,9.7-2.2
		s5.7-3.5,7.9-6.1c2.3-2.6,4.1-5.6,5.4-9c1.3-3.4,1.9-7.1,1.9-11s-0.6-7.6-1.9-11c-1.3-3.4-3.1-6.4-5.4-9c-2.3-2.6-4.9-4.6-7.9-6.1
		s-6.2-2.2-9.7-2.2c-3.4,0-6.7,0.7-9.7,2.2s-5.7,3.5-7.9,6.1c-2.3,2.6-4.1,5.6-5.4,9C107.1,75.7,106.5,79.4,106.5,83.3z
		 M131.4,108.7c-3.1,0-6-0.7-8.7-2s-5.1-3.2-7.1-5.5s-3.6-5-4.8-8.1c-1.2-3.1-1.8-6.4-1.8-9.9s0.6-6.8,1.8-9.9
		c1.2-3.1,2.8-5.8,4.8-8.1c2-2.3,4.4-4.1,7.1-5.5c2.7-1.3,5.6-2,8.7-2c3.1,0,6,0.7,8.7,2s5.1,3.2,7.1,5.5c2,2.3,3.6,5,4.8,8.1
		s1.8,6.4,1.8,9.9s-0.6,6.8-1.8,9.9s-2.8,5.8-4.8,8.1c-2,2.3-4.4,4.1-7.1,5.5C137.4,108.1,134.5,108.7,131.4,108.7z M117.7,83.3
		c0,2.1,0.4,4.1,1.1,6s1.7,3.5,2.9,4.9c1.2,1.4,2.7,2.5,4.3,3.3c1.7,0.8,3.4,1.2,5.3,1.2c1.9,0,3.6-0.4,5.3-1.2
		c1.7-0.8,3.1-1.9,4.3-3.3s2.2-3,2.9-4.9s1.1-3.9,1.1-6s-0.4-4.1-1.1-6c-0.7-1.9-1.7-3.5-2.9-4.9s-2.7-2.5-4.3-3.3
		c-1.7-0.8-3.4-1.2-5.3-1.2c-1.9,0-3.6,0.4-5.3,1.2c-1.7,0.8-3.1,1.9-4.3,3.3c-1.2,1.4-2.2,3-2.9,4.9
		C118.1,79.1,117.7,81.1,117.7,83.3z"/>
	<path class="st0" d="M169.3,83.3c0-5.3,0.9-10.3,2.7-15s4.2-8.8,7.3-12.3s6.7-6.3,10.8-8.3s8.6-3,13.2-3s9.1,1,13.2,3
		c4.1,2,7.8,4.8,10.8,8.3c3.1,3.5,5.5,7.6,7.3,12.3s2.7,9.7,2.7,15s-0.9,10.3-2.7,15s-4.2,8.8-7.3,12.3s-6.7,6.3-10.8,8.3
		c-4.2,2-8.6,3-13.2,3s-9.1-1-13.2-3c-4.2-2-7.8-4.8-10.8-8.3c-3.1-3.5-5.5-7.6-7.3-12.3S169.3,88.6,169.3,83.3z M178.4,83.3
		c0,3.9,0.6,7.6,1.9,11c1.3,3.4,3.1,6.4,5.4,9c2.3,2.6,4.9,4.6,7.9,6.1s6.2,2.2,9.7,2.2c3.4,0,6.7-0.7,9.7-2.2s5.7-3.5,7.9-6.1
		c2.3-2.6,4.1-5.6,5.4-9c1.3-3.4,1.9-7.1,1.9-11s-0.6-7.6-1.9-11c-1.3-3.4-3.1-6.4-5.4-9c-2.3-2.6-4.9-4.6-7.9-6.1s-6.2-2.2-9.7-2.2
		c-3.4,0-6.7,0.7-9.7,2.2s-5.7,3.5-7.9,6.1c-2.3,2.6-4.1,5.6-5.4,9C179.1,75.7,178.4,79.4,178.4,83.3z M203.3,108.7
		c-3.1,0-6-0.7-8.7-2s-5.1-3.2-7.1-5.5s-3.6-5-4.8-8.1s-1.8-6.4-1.8-9.9s0.6-6.8,1.8-9.9s2.8-5.8,4.8-8.1c2-2.3,4.4-4.1,7.1-5.5
		c2.7-1.3,5.6-2,8.7-2c3.1,0,6,0.7,8.7,2s5.1,3.2,7.1,5.5c2,2.3,3.6,5,4.8,8.1s1.8,6.4,1.8,9.9s-0.6,6.8-1.8,9.9s-2.8,5.8-4.8,8.1
		c-2,2.3-4.4,4.1-7.1,5.5C209.4,108.1,206.5,108.7,203.3,108.7z M189.7,83.3c0,2.1,0.4,4.1,1.1,6c0.7,1.9,1.7,3.5,2.9,4.9
		s2.7,2.5,4.3,3.3c1.7,0.8,3.4,1.2,5.3,1.2c1.9,0,3.6-0.4,5.3-1.2c1.7-0.8,3.1-1.9,4.3-3.3s2.2-3,2.9-4.9s1.1-3.9,1.1-6
		s-0.4-4.1-1.1-6c-0.7-1.9-1.7-3.5-2.9-4.9s-2.7-2.5-4.3-3.3c-1.7-0.8-3.4-1.2-5.3-1.2c-1.9,0-3.6,0.4-5.3,1.2
		c-1.7,0.8-3.1,1.9-4.3,3.3s-2.2,3-2.9,4.9C190.1,79.1,189.7,81.1,189.7,83.3z"/>
	<path class="st0" d="M242.7,46.3h17l17.9,28.4V46.3H298v73.8h-17.1l-17.8-28.3v28.3h-20.3V46.3H242.7z M254.3,111.3V60.2l32.1,51.1
		h2.5V55.2h-2.5v51.1l-32.1-51.1h-2.5v56.1H254.3z"/>
</g>
</svg>
