<svg xmlns="http://www.w3.org/2000/svg" viewBox="0 0 417.91 293"><defs><style>.cls-1{font-size:35.39px;}.cls-1,.cls-3{fill:#fff;font-family:MyriadPro-Regular, Myriad Pro;}.cls-2{fill:#aaa5a5;}.cls-3{font-size:17.69px;}</style></defs><title>Asset 2</title><g id="Layer_2" data-name="Layer 2"><g id="About_Page" data-name="About Page"><g id="skil"><g id="SKill"><rect y="77.85" width="66.36" height="61.57"/><rect x="69.41" y="77.85" width="66.36" height="61.57"/><rect x="138.82" y="77.85" width="66.36" height="61.57"/><rect x="208.23" y="77.85" width="66.36" height="61.57"/><text class="cls-1" transform="translate(89.87 118.24) scale(1.08 1)">A</text><text class="cls-1" transform="translate(21.73 118.24) scale(1.08 1)">S</text><text class="cls-1" transform="translate(158.01 118.24) scale(1.08 1)">S</text><text class="cls-1" transform="translate(226.15 118.24) scale(1.08 1)">S</text><rect class="cls-2" x="277.64" y="77.85" width="66.36" height="61.57"/><rect width="66.36" height="61.57"/><rect x="69.41" width="66.36" height="61.57"/><rect x="138.82" width="66.36" height="61.57"/><rect x="208.23" width="66.36" height="61.57"/><text class="cls-1" transform="translate(89.87 40.39) scale(1.08 1)">A</text><text class="cls-1" transform="translate(21.73 40.39) scale(1.08 1)">J</text><text class="cls-1" transform="translate(158.01 40.39) scale(1.08 1)">V</text><text class="cls-1" transform="translate(226.15 40.39) scale(1.08 1)">A</text><rect class="cls-2" x="277.64" width="66.36" height="61.57"/><text class="cls-3" transform="translate(281.47 36.2) scale(1.08 1)">SCRIPT</text><rect x="279.32" y="77.85" width="33" height="61.57"/><rect y="155.7" width="66.36" height="61.57"/><rect x="69.41" y="155.7" width="66.36" height="61.57"/><rect x="138.82" y="155.7" width="66.36" height="61.57"/><rect x="208.23" y="155.7" width="66.36" height="61.57"/><text class="cls-1" transform="translate(94.45 196.09) scale(1.08 1)">T</text><text class="cls-1" transform="translate(21.73 196.09) scale(1.08 1)">H</text><text class="cls-1" transform="translate(152.67 196.09) scale(1.08 1)">M</text><text class="cls-1" transform="translate(226.15 196.09) scale(1.08 1)">L</text><rect x="277.64" y="155.7" width="66.36" height="61.57"/><text class="cls-1" transform="translate(300.9 196.09) scale(1.08 1)">5</text><rect y="231.43" width="66.36" height="61.57"/><rect x="69.41" y="231.43" width="66.36" height="61.57"/><rect x="138.82" y="231.43" width="66.36" height="61.57"/><rect x="208.23" y="231.43" width="66.36" height="61.57"/><text class="cls-1" transform="translate(94.45 271.81) scale(1.08 1)">S</text><text class="cls-1" transform="translate(21.73 271.81) scale(1.08 1)">C</text><text class="cls-1" transform="translate(156.48 271.81) scale(1.08 1)">S</text><rect x="277.64" y="231.43" width="66.36" height="61.57"/><path d="M392.59,39.83a5.81,5.81,0,0,1-3.9,1.06h-.84a5.81,5.81,0,0,1-3.9-1.06,4.41,4.41,0,0,1-1.2-3.44V34a3.63,3.63,0,0,1,1.95-3.5,3.67,3.67,0,0,1-1.59-3.3V25.4A4.22,4.22,0,0,1,384.37,22,5.37,5.37,0,0,1,388,21h.6a5.37,5.37,0,0,1,3.6,1.08,4.22,4.22,0,0,1,1.26,3.36v1.8a3.67,3.67,0,0,1-1.59,3.3,3.63,3.63,0,0,1,2,3.5v2.39A4.41,4.41,0,0,1,392.59,39.83Zm-2-7.58A2.25,2.25,0,0,0,389,31.7h-1.44a2.25,2.25,0,0,0-1.59.55,1.94,1.94,0,0,0-.6,1.5v2.93a2.25,2.25,0,0,0,.48,1.57,2,2,0,0,0,1.5.51H389a2.43,2.43,0,0,0,1.68-.5,2.06,2.06,0,0,0,.54-1.58V33.75A1.94,1.94,0,0,0,390.58,32.25Zm-4.42-8.63a2.29,2.29,0,0,0-.44,1.53v2.33a2,2,0,0,0,.56,1.47,2.08,2.08,0,0,0,1.39.61h1a2.13,2.13,0,0,0,1.53-.57,2,2,0,0,0,.6-1.51V25.15a2.13,2.13,0,0,0-.49-1.57,2.31,2.31,0,0,0-1.64-.48h-1.08A1.9,1.9,0,0,0,386.16,23.62Z"/><path d="M408.45,39.65a5.25,5.25,0,0,1-3.68,1.24h-.6a5.23,5.23,0,0,1-3.67-1.24,4.57,4.57,0,0,1-1.37-3.6V25.8a4.62,4.62,0,0,1,1.35-3.61A5.27,5.27,0,0,1,404.17,21h.6a5.27,5.27,0,0,1,3.69,1.23,4.62,4.62,0,0,1,1.35,3.61V36.05A4.63,4.63,0,0,1,408.45,39.65Zm-1.9-15.91a2.53,2.53,0,0,0-1.78-.64h-.6a2.55,2.55,0,0,0-1.79.64,2,2,0,0,0-.7,1.52V33l5.58-7.72A2,2,0,0,0,406.55,23.74Zm-4.17,14.38a2.6,2.6,0,0,0,1.79.64h.6a2.57,2.57,0,0,0,1.78-.64,2,2,0,0,0,.71-1.53V28.91l-5.58,7.68A2,2,0,0,0,402.38,38.12Z"/><path d="M384.4,100a4.77,4.77,0,0,1,3.39-1.25h1a4.77,4.77,0,0,1,3.39,1.25,4.65,4.65,0,0,1,1.35,3.59v10.25a4.61,4.61,0,0,1-1.37,3.63,5.83,5.83,0,0,1-4,1.21h-3.45v-2.17h3.75a2.61,2.61,0,0,0,1.8-.62,2,2,0,0,0,.69-1.51v-3.11h-2.94a5.66,5.66,0,0,1-3.81-1.08,4.4,4.4,0,0,1-1.23-3.47v-3.13A4.65,4.65,0,0,1,384.4,100Zm6,1.51a2.31,2.31,0,0,0-1.71-.63h-.75a2.31,2.31,0,0,0-1.71.63,2.07,2.07,0,0,0-.63,1.53v4.22a1.72,1.72,0,0,0,.56,1.38,2.35,2.35,0,0,0,1.63.5H391v-6.1A2.07,2.07,0,0,0,390.4,101.55Z"/><path d="M408.45,117.48a5.3,5.3,0,0,1-3.68,1.24h-.6a5.28,5.28,0,0,1-3.67-1.24,4.59,4.59,0,0,1-1.37-3.6V103.63a4.64,4.64,0,0,1,1.35-3.62,5.27,5.27,0,0,1,3.69-1.22h.6a5.27,5.27,0,0,1,3.69,1.22,4.64,4.64,0,0,1,1.35,3.62v10.25A4.66,4.66,0,0,1,408.45,117.48Zm-1.9-15.92a2.53,2.53,0,0,0-1.78-.64h-.6a2.55,2.55,0,0,0-1.79.64,2,2,0,0,0-.7,1.52v7.72l5.58-7.72A2,2,0,0,0,406.55,101.56Zm-4.17,14.38a2.55,2.55,0,0,0,1.79.64h.6a2.53,2.53,0,0,0,1.78-.64,2,2,0,0,0,.71-1.52v-7.69l-5.58,7.69A2,2,0,0,0,402.38,115.94Z"/><path d="M379.36,194.4V178.86l-4.23,1.48V178l3.93-1.42h2.85V194.4h3.27v2.14h-9.75V194.4Z"/><path d="M400.35,195.3a5.3,5.3,0,0,1-3.68,1.24h-.6a5.28,5.28,0,0,1-3.67-1.24,4.63,4.63,0,0,1-1.37-3.6V181.45a4.64,4.64,0,0,1,1.35-3.62,5.32,5.32,0,0,1,3.69-1.22h.6a5.32,5.32,0,0,1,3.69,1.22,4.64,4.64,0,0,1,1.35,3.62V191.7A4.66,4.66,0,0,1,400.35,195.3Zm-1.89-15.92a2.6,2.6,0,0,0-1.79-.64h-.6a2.56,2.56,0,0,0-1.78.64,2,2,0,0,0-.71,1.53v7.71l5.58-7.71A2,2,0,0,0,398.46,179.38Zm-4.17,14.38a2.51,2.51,0,0,0,1.78.64h.6a2.55,2.55,0,0,0,1.79-.64,2,2,0,0,0,.7-1.52v-7.69l-5.58,7.69A2,2,0,0,0,394.29,193.76Z"/><path d="M416.55,195.3a5.3,5.3,0,0,1-3.68,1.24h-.6a5.28,5.28,0,0,1-3.67-1.24,4.63,4.63,0,0,1-1.37-3.6V181.45a4.64,4.64,0,0,1,1.35-3.62,5.32,5.32,0,0,1,3.69-1.22h.6a5.32,5.32,0,0,1,3.69,1.22,4.64,4.64,0,0,1,1.35,3.62V191.7A4.62,4.62,0,0,1,416.55,195.3Zm-1.89-15.92a2.6,2.6,0,0,0-1.79-.64h-.6a2.57,2.57,0,0,0-1.78.64,2,2,0,0,0-.71,1.53v7.71l5.58-7.71A2,2,0,0,0,414.66,179.38Zm-4.17,14.38a2.53,2.53,0,0,0,1.78.64h.6a2.55,2.55,0,0,0,1.79-.64,2,2,0,0,0,.7-1.52v-7.69l-5.58,7.69A2,2,0,0,0,410.49,193.76Z"/><path d="M379.36,272.23V256.68l-4.23,1.48v-2.31l3.93-1.42h2.85v17.8h3.27v2.13h-9.75v-2.13Z"/><path d="M400.35,273.12a5.25,5.25,0,0,1-3.68,1.24h-.6a5.23,5.23,0,0,1-3.67-1.24,4.6,4.6,0,0,1-1.37-3.6V259.27a4.62,4.62,0,0,1,1.35-3.61,5.27,5.27,0,0,1,3.69-1.23h.6a5.27,5.27,0,0,1,3.69,1.23,4.62,4.62,0,0,1,1.35,3.61v10.25A4.63,4.63,0,0,1,400.35,273.12Zm-1.89-15.91a2.55,2.55,0,0,0-1.79-.64h-.6a2.51,2.51,0,0,0-1.78.64,2,2,0,0,0-.71,1.52v7.72l5.58-7.72A2,2,0,0,0,398.46,257.21Zm-4.17,14.37a2.52,2.52,0,0,0,1.78.65h.6a2.56,2.56,0,0,0,1.79-.65,2,2,0,0,0,.7-1.52v-7.68l-5.58,7.68A2,2,0,0,0,394.29,271.58Z"/><path d="M416.55,273.12a5.25,5.25,0,0,1-3.68,1.24h-.6a5.23,5.23,0,0,1-3.67-1.24,4.6,4.6,0,0,1-1.37-3.6V259.27a4.62,4.62,0,0,1,1.35-3.61,5.27,5.27,0,0,1,3.69-1.23h.6a5.27,5.27,0,0,1,3.69,1.23,4.62,4.62,0,0,1,1.35,3.61v10.25A4.6,4.6,0,0,1,416.55,273.12Zm-1.89-15.91a2.55,2.55,0,0,0-1.79-.64h-.6a2.53,2.53,0,0,0-1.78.64,2,2,0,0,0-.71,1.52v7.72l5.58-7.72A2,2,0,0,0,414.66,257.21Zm-4.17,14.37a2.53,2.53,0,0,0,1.78.65h.6a2.56,2.56,0,0,0,1.79-.65,2,2,0,0,0,.7-1.52v-7.68l-5.58,7.68A2,2,0,0,0,410.49,271.58Z"/></g></g></g></g></svg>